<svg width="463" height="777" viewBox="0 0 463 777" fill="none" xmlns="http://www.w3.org/2000/svg">
<path d="M311.687 776.664C312.387 774.114 314.877 773.934 316.727 773.044C321.347 770.824 326.477 769.444 329.277 764.554C329.357 764.414 329.487 764.254 329.627 764.214C340.327 761.244 336.267 752.484 335.647 746.284C334.437 734.244 331.537 722.374 329.337 710.444C328.457 705.684 329.717 701.774 333.077 698.124C344.237 685.994 355.377 673.844 367.527 662.674C370.567 659.874 372.237 656.734 370.617 652.484C370.217 651.444 370.437 650.174 370.327 649.024C370.057 646.214 371.537 642.344 367.697 641.324C363.867 640.294 360.287 641.834 357.267 644.714C352.857 648.924 350.977 654.294 349.487 659.944C349.087 661.474 348.377 662.924 347.807 664.434C345.987 663.594 346.537 662.474 346.847 661.644C349.977 653.064 350.307 643.824 353.477 635.194C356.547 626.854 354.937 617.694 356.577 609.014C357.197 605.754 357.327 602.394 357.897 599.124C358.557 595.324 357.927 593.264 353.387 594.584C350.987 595.284 348.417 595.074 345.957 594.504C339.847 593.104 334.427 591.034 331.057 584.884C327.867 579.074 323.937 573.654 321.637 567.354C319.817 562.384 320.997 559.094 325.587 556.484C327.107 555.624 328.817 555.064 327.767 552.874C326.917 551.084 325.987 549.404 323.437 549.444C318.257 549.524 317.657 548.434 319.547 543.404C320.917 539.754 320.997 535.634 324.237 532.694C325.887 531.204 323.977 530.344 322.847 529.914C312.947 526.144 302.967 524.144 293.007 529.654C291.007 530.764 289.097 531.304 289.407 528.344C290.577 517.094 293.347 506.274 299.147 495.274C304.257 507.704 314.977 510.324 325.067 513.404C331.697 515.424 338.527 517.024 345.587 517.324C350.367 517.524 352.897 522.074 356.827 524.084C358.007 524.684 357.267 526.904 356.767 528.304C355.937 530.654 355.027 532.984 354.027 535.274C353.387 536.734 353.207 537.634 350.587 536.734C346.657 535.384 342.087 536.884 337.697 535.854C336.097 535.474 334.757 538.704 334.417 540.904C334.067 543.204 334.777 545.304 336.847 546.504C338.397 547.414 340.177 547.964 341.897 548.564C342.977 548.934 344.477 548.934 344.437 550.434C344.397 551.924 342.957 552.234 341.807 552.074C336.567 551.324 337.507 553.554 338.857 557.064C340.717 561.884 343.647 566.164 345.147 571.164C346.217 574.734 348.987 574.774 351.207 572.144C353.347 569.604 355.497 568.184 358.937 569.014C361.287 569.584 362.077 567.384 362.947 565.914C366.477 559.904 371.437 555.834 378.177 553.924C379.917 553.434 381.747 552.784 381.787 550.394C381.807 548.754 381.167 547.634 379.807 546.644C375.457 543.494 375.267 539.714 379.457 536.184C380.797 535.054 381.397 533.894 382.117 532.364C383.547 529.304 384.407 525.104 389.427 525.724C390.667 525.874 391.477 524.854 392.397 524.114C401.737 516.654 406.107 518.144 413.417 522.824C420.547 527.384 424.477 532.944 424.227 541.544C424.137 544.584 423.337 546.844 421.397 549.184C417.977 553.314 416.737 559.074 411.597 562.004C410.067 562.874 411.297 564.114 412.217 564.764C423.367 572.604 425.227 584.674 426.767 596.844C428.587 611.194 430.237 625.574 432.077 639.924C432.697 644.764 432.817 649.384 431.237 654.184C429.407 659.754 429.747 665.674 429.827 671.524C429.897 676.414 427.067 679.424 422.197 679.924C419.667 680.184 417.407 679.974 417.977 676.324C418.187 674.994 417.717 673.364 416.247 673.114C414.527 672.824 414.217 674.554 413.917 675.804C410.817 688.554 407.697 701.294 404.747 714.084C404.047 717.114 404.527 720.594 407.097 722.374C419.727 731.064 424.667 745.484 433.487 756.984C435.977 760.234 438.067 763.654 441.797 766.074C445.217 768.284 445.007 772.734 444.667 776.634C435.627 776.674 426.587 776.714 417.537 776.754C417.387 774.554 418.317 772.614 420.077 771.654C425.117 768.904 424.067 765.384 421.557 761.774C413.307 749.964 403.197 739.934 391.757 731.244C389.587 729.604 386.997 727.974 386.947 725.204C386.807 716.764 384.357 708.404 386.207 699.894C387.267 695.014 387.677 690.044 387.497 685.034C387.407 682.364 386.647 680.804 384.077 683.014C374.807 690.944 363.527 695.884 354.037 703.514C348.197 708.204 344.707 712.724 346.597 721.174C349.327 733.374 347.057 746.044 348.037 758.484C348.197 760.454 347.717 762.854 349.567 764.044C354.287 767.064 354.327 772.104 355.537 776.674C340.937 776.644 326.307 776.654 311.687 776.664Z" fill="white"/>
<path d="M461.867 239.404C455.797 224.864 448.767 210.694 444.897 195.304C442.967 187.604 438.607 180.994 434.987 174.114C431.667 167.794 428.337 161.484 425.017 155.154C424.267 153.724 423.667 151.774 421.667 151.894C419.787 152.014 419.007 153.844 418.437 155.354C415.967 161.874 413.257 168.334 411.327 175.014C408.117 186.094 402.137 195.944 397.737 206.484C391.867 220.554 384.987 234.194 380.627 248.874C380.437 249.514 380.237 250.144 380.027 250.784C379.187 253.314 378.337 256.894 375.457 256.544C371.977 256.114 373.237 252.314 373.227 249.844C373.157 226.614 372.887 203.434 375.097 180.204C376.117 169.494 373.907 158.324 372.057 147.554C370.497 138.424 371.307 129.304 370.337 120.204C368.197 100.064 366.447 79.8844 364.647 59.7144C363.867 50.9544 363.697 42.1444 363.027 33.3644C362.497 26.4044 362.227 19.4544 360.787 12.6044C360.477 11.1244 360.347 9.59443 361.087 8.20443C362.417 5.73443 363.997 4.97444 365.857 7.75444C367.577 10.3244 367.577 13.4744 368.707 16.2244C374.327 29.8644 380.187 43.4344 384.937 57.4044C388.797 68.7544 395.207 78.8944 399.757 89.9144C402.027 95.4244 405.737 98.3744 412.437 97.9944C423.667 97.3544 424.727 97.2044 425.597 85.7944C426.807 69.8744 428.327 53.9644 431.387 38.3344C433.617 26.9044 435.057 15.3844 437.067 3.93444C437.367 2.22444 437.327 -0.115564 439.917 0.00443614C442.267 0.114436 442.617 2.25443 442.817 4.06443C444.757 21.7444 446.967 39.3944 448.377 57.1144C449.127 66.4744 451.707 75.4044 453.247 84.5644C455.177 96.0244 457.317 107.434 458.857 118.964C459.627 124.684 460.817 130.344 461.807 136.034C462.687 143.844 462.207 151.684 462.227 159.504C462.297 184.494 462.267 209.484 462.247 234.474C462.277 236.104 462.007 237.754 461.867 239.404Z" fill="#282524"/>
<path d="M0.156913 54.9643C6.70691 59.2043 12.3569 64.6243 17.6269 70.1943C20.4969 73.2243 23.6769 75.7743 26.6769 78.5743C35.1869 86.5043 43.7769 94.3543 52.3769 102.194C56.3669 105.834 57.8669 105.134 60.3669 100.244C67.6769 85.9543 71.5269 70.4143 77.1269 55.5043C79.1569 50.1043 82.3269 45.1243 85.1069 40.0243C85.7569 38.8343 86.3368 36.7843 88.2068 37.4443C89.8068 38.0043 89.6469 39.9043 89.5969 41.3943C89.3969 46.3843 89.2869 51.3743 88.9069 56.3443C86.9669 81.4443 86.7469 106.654 88.4169 131.664C90.0669 156.324 82.8969 178.894 76.8469 201.974C71.8769 220.934 67.557 240.064 62.447 258.984C58.817 272.434 57.5569 286.414 52.8969 299.594C52.3869 301.034 52.6469 303.704 50.5369 303.414C48.3169 303.104 48.2369 300.564 47.9769 298.544C46.2969 285.324 45.917 272.074 45.947 258.744C45.977 240.824 45.1469 222.894 44.5269 204.974C44.4269 202.014 43.4869 199.084 43.0269 196.124C41.9869 189.394 40.5369 182.714 41.2669 175.814C42.0369 168.494 38.6069 162.284 35.7369 155.914C28.4569 139.714 20.5369 123.834 14.6069 106.994C11.1169 97.0743 5.23694 87.9943 0.436942 78.5343C-0.333058 70.6943 0.146913 62.8243 0.156913 54.9643Z" fill="#282524"/>
<path d="M138.037 199.404C138.087 181.954 134.457 165.484 131.787 148.934C129.307 133.534 125.677 118.314 123.107 102.924C120.477 87.184 116.337 71.714 114.577 55.814C114.047 51.034 113.397 46.264 112.787 41.494C112.157 36.574 114.917 35.224 119.217 34.784C125.857 34.104 132.397 35.564 139.007 35.224C149.797 34.664 160.647 34.824 171.347 33.584C176.037 33.044 180.837 32.294 185.547 31.404C187.817 30.974 190.657 30.344 192.057 32.474C193.627 34.874 190.687 36.404 189.667 38.294C187.777 41.814 184.057 43.264 181.257 45.744C172.947 53.124 165.537 61.474 156.817 68.414C152.807 71.604 152.587 75.974 152.817 80.644C153.627 97.474 157.237 113.934 159.157 130.614C160.347 140.954 162.887 143.214 173.357 142.784C185.157 142.304 196.897 142.794 208.637 143.934C208.967 143.964 209.327 143.894 209.627 143.994C211.757 144.664 214.907 144.204 215.467 146.904C216.037 149.674 213.047 150.754 211.127 151.674C198.267 157.884 186.877 166.854 173.317 171.704C169.237 173.164 168.227 176.124 168.297 180.334C168.577 197.024 172.317 213.324 173.497 229.894C173.507 230.064 173.597 230.234 173.567 230.384C170.817 246.224 183.967 249.764 193.607 255.364C201.287 259.824 209.917 262.664 218.117 266.224C218.727 266.484 219.407 266.684 219.907 267.094C222.027 268.834 225.197 270.074 224.607 273.514C224.077 276.534 220.947 276.544 218.697 277.344C215.507 278.474 212.127 278.314 208.807 278.254C193.147 277.994 178.557 283.874 163.337 286.194C159.557 286.774 155.787 287.254 151.987 287.624C148.507 287.964 147.157 286.074 146.807 283.014C144.177 260.424 141.657 237.814 138.837 215.234C138.167 209.774 137.507 204.364 138.037 199.404Z" fill="#282524"/>
<path d="M345.547 239.404C345.977 243.204 346.477 246.994 346.817 250.804C346.927 252.044 347.447 253.744 345.917 254.384C344.137 255.124 343.077 253.484 342.417 252.294C339.367 246.774 336.397 241.224 332.677 236.084C327.627 229.114 323.837 221.344 318.667 214.404C315.537 210.204 313.587 205.104 311.257 200.324C308.937 195.564 306.867 190.674 304.567 185.894C302.937 182.514 300.537 182.254 298.197 185.294C294.127 190.574 290.657 196.274 287.607 202.184C279.817 217.304 269.627 230.744 259.047 243.954C254.497 249.634 250.567 255.824 246.387 261.794C245.467 263.114 244.817 265.324 242.837 264.494C240.837 263.664 242.057 261.674 242.297 260.104C246.817 231.164 255.037 203.044 261.387 174.514C267.177 148.504 269.517 122.084 273.987 95.9543C277.117 77.6443 279.857 59.2843 282.437 40.8943C283.287 34.8043 283.897 28.6743 284.737 22.5743C284.947 21.0643 284.527 18.6443 286.707 18.5843C288.627 18.5343 288.817 20.9243 289.337 22.3843C291.617 28.7743 294.227 35.1043 295.827 41.6743C298.417 52.3243 304.097 62.0043 305.307 73.0543C306.837 87.0243 313.797 99.2043 318.327 112.184C323.307 126.474 327.767 140.874 330.177 155.914C331.537 164.374 334.607 172.554 336.747 180.894C340.267 194.604 341.317 208.724 343.447 222.664C344.297 228.214 345.167 233.764 346.037 239.314C345.857 239.364 345.697 239.384 345.547 239.404ZM292.957 142.894C291.607 153.094 295.797 153.694 304.467 151.724C306.787 151.194 307.527 149.854 307.067 147.314C304.937 135.524 301.487 124.104 297.787 112.744C297.297 111.254 296.847 108.864 295.037 109.074C292.667 109.344 293.277 111.834 293.217 113.574C292.857 123.344 294.477 133.134 292.957 142.894Z" fill="#282524"/>
<path d="M302.007 557.294C301.097 570.174 298.877 582.344 295.217 594.314C293.677 599.334 293.337 604.814 293.117 610.104C292.337 628.964 290.427 647.834 293.547 666.684C294.137 670.244 293.797 673.964 293.757 677.614C293.737 679.424 292.867 680.874 290.967 681.274C288.997 681.684 287.777 680.444 287.057 678.864C285.687 675.834 284.337 672.784 283.267 669.644C278.627 655.984 271.667 643.204 267.967 629.184C267.657 628.024 267.227 626.844 265.827 626.754C263.817 626.624 262.647 628.194 262.207 629.684C260.367 635.804 256.997 641.164 254.127 646.774C249.297 656.224 243.347 665.084 239.377 674.994C238.687 676.704 237.047 678.614 234.687 677.784C232.707 677.084 232.307 675.054 232.537 673.154C235.407 649.094 234.987 624.514 241.717 601.084C246.007 586.164 248.007 570.914 251.397 555.884C251.977 553.314 251.797 549.214 255.157 549.054C258.927 548.874 258.847 552.814 259.597 555.724C262.277 566.214 262.937 576.974 264.397 587.634C265.177 593.354 271.367 597.334 274.987 594.254C277.407 592.194 279.857 589.834 281.317 586.704C286.067 576.474 290.967 566.314 295.847 556.144C296.677 554.404 297.297 551.914 299.817 552.384C302.797 552.934 301.827 555.694 302.007 557.294Z" fill="#282524"/>
<path d="M131.697 663.934C121.757 666.104 111.427 664.794 101.097 662.724C96.4168 661.784 93.2268 660.924 93.4668 654.394C93.7668 646.144 93.7368 637.924 94.6068 629.644C95.6368 619.924 94.8369 610.014 95.9269 600.304C97.3069 588.034 94.7969 575.774 96.7969 563.524C97.4469 559.534 100.207 556.184 99.7768 552.034C98.9068 543.544 100.147 535.154 100.717 526.724C101.077 521.464 102.787 519.584 108.217 519.844C120.377 520.434 132.247 523.054 144.177 525.244C145.687 525.524 147.227 526.074 147.627 527.724C148.077 529.574 146.447 530.454 145.207 531.084C138.677 534.344 132.157 537.674 125.447 540.514C122.167 541.904 119.907 543.834 119.597 547.244C118.727 556.714 114.467 565.414 113.737 574.944C113.077 583.514 113.817 585.494 121.917 587.244C128.977 588.774 134.857 593.304 141.997 594.534C143.397 594.774 144.897 595.694 144.887 597.534C144.867 599.744 143.007 599.814 141.467 600.474C134.767 603.354 127.357 602.494 120.507 604.614C118.177 605.334 116.557 605.974 116.457 608.714C116.117 618.324 115.717 627.934 115.277 637.544C115.117 640.894 116.037 643.044 119.647 644.214C126.417 646.394 131.347 651.354 136.007 656.484C137.387 658.004 139.557 659.594 138.377 662.034C137.137 664.554 134.687 664.584 131.697 663.934Z" fill="#282524"/>
<path d="M212.617 553.504C213.037 558.194 212.947 563.944 214.337 569.664C215.117 572.864 214.337 576.514 213.937 579.914C212.277 594.084 213.047 608.364 212.547 622.564C212.247 631.024 213.387 640.084 215.937 648.584C217.957 655.334 217.607 662.394 218.507 669.284C218.707 670.854 218.087 672.314 216.527 672.994C215.127 673.604 213.827 672.904 212.887 671.994C211.107 670.284 209.267 668.614 208.427 666.114C204.617 654.764 199.197 644.164 193.437 633.704C191.847 630.824 190.027 629.624 187.417 632.484C179.827 640.784 170.927 647.784 163.657 656.404C163.127 657.034 162.637 657.834 161.937 658.174C159.367 659.404 156.817 662.614 153.877 660.194C150.847 657.694 152.127 654.374 153.637 651.124C157.357 643.154 161.107 635.164 164.177 626.934C167.717 617.464 173.767 609.534 179.097 601.184C181.927 596.754 182.737 591.704 184.967 587.084C191.597 573.334 199.407 560.244 206.297 546.664C207.207 544.874 208.307 542.554 210.467 542.934C212.817 543.354 212.597 545.934 212.607 547.944C212.627 549.454 212.617 550.954 212.617 553.504ZM200.017 590.204C194.707 594.294 193.457 599.134 192.037 603.534C190.787 607.374 195.137 606.894 197.257 607.954C198.567 608.604 199.987 608.634 200.007 606.564C200.057 601.504 200.017 596.434 200.017 590.204Z" fill="#282524"/>
<path d="M35.2568 645.254C37.0768 634.204 35.7269 623.174 35.3169 612.114C35.1269 607.144 36.1768 602.214 37.1768 597.314C39.0368 588.214 40.0068 579.864 35.4968 570.364C28.4468 555.504 24.1068 539.364 18.6168 523.764C17.8868 521.694 17.9768 519.604 19.7768 518.314C21.8568 516.824 23.2768 518.814 24.2968 520.134C32.2868 530.414 42.3968 538.584 51.4968 547.744C54.4268 550.694 55.9968 551.164 59.2668 547.464C65.0368 540.924 69.0669 533.304 74.1869 526.404C74.2869 526.274 74.3369 526.104 74.4469 525.984C76.6869 523.444 78.9468 518.894 82.1568 520.224C85.1968 521.484 82.7169 525.904 82.0669 528.804C78.4369 544.954 74.7569 561.104 70.8069 577.184C68.7769 585.454 62.4168 591.894 60.6268 600.374C58.6668 609.654 54.9868 618.414 51.2168 627.044C47.9668 634.494 44.2168 641.714 41.4668 649.404C40.7968 651.264 39.0768 652.934 36.7968 652.364C34.4068 651.764 35.0668 649.494 35.0468 647.734C35.0568 646.914 35.1868 646.084 35.2568 645.254Z" fill="#282524"/>
<path d="M242.167 359.344C240.307 380.114 238.677 399.934 233.357 419.294C231.307 426.744 230.637 434.664 230.597 442.514C230.587 443.924 230.977 445.994 229.087 446.234C227.217 446.464 227.057 444.314 226.607 443.004C223.287 433.434 220.067 423.834 216.777 414.264C216.257 412.744 216.217 410.634 214.327 410.194C212.367 409.734 211.627 411.704 210.557 412.924C203.497 420.924 197.867 429.984 191.537 438.524C190.847 439.454 190.137 440.384 189.337 441.214C188.557 442.024 187.767 443.284 186.467 442.704C184.857 441.984 185.477 440.504 185.727 439.204C188.017 427.654 189.087 415.894 192.097 404.464C195.747 390.584 196.177 376.204 198.167 362.064C198.557 359.264 199.097 356.494 199.607 353.714C199.817 352.594 199.887 351.094 201.337 351.034C202.747 350.974 202.977 352.434 203.367 353.524C205.707 360.114 206.197 367.194 208.777 373.734C209.807 376.344 210.337 379.164 211.077 381.884C211.887 384.914 213.007 387.514 216.747 387.914C220.377 388.294 222.827 387.534 224.867 383.964C229.077 376.594 233.097 369.164 236.597 361.434C237.007 360.524 237.387 359.584 237.947 358.774C238.667 357.724 239.267 356.044 240.827 356.484C242.677 357.004 242.107 358.874 242.167 359.344Z" fill="#282524"/>
<path d="M453.657 324.344C451.417 336.594 449.897 349.254 449.207 361.974C448.577 373.624 445.257 384.774 443.827 396.254C443.547 398.484 443.437 401.094 441.057 401.604C438.097 402.244 438.817 399.054 437.987 397.504C434.017 390.124 432.017 382.014 429.467 374.114C429.037 372.774 428.867 370.964 427.037 370.634C425.107 370.284 424.037 371.644 423.007 373.034C417.787 380.084 412.547 387.134 407.277 394.154C406.537 395.144 405.937 396.844 404.287 396.194C402.737 395.584 402.237 393.904 402.437 392.394C404.397 378.114 405.227 363.684 409.467 349.744C412.207 340.724 414.207 331.464 415.517 322.084C415.727 320.604 415.907 319.124 416.217 317.664C416.387 316.864 416.687 316.014 417.657 315.834C418.827 315.624 419.607 316.364 420.037 317.264C420.677 318.604 421.227 320.024 421.587 321.464C423.137 327.714 424.637 333.974 426.077 340.244C426.887 343.754 429.027 345.764 432.557 346.224C435.697 346.634 437.027 344.814 438.577 342.214C442.257 336.054 443.967 329.044 447.487 322.874C448.627 320.864 449.037 317.084 451.957 317.764C454.657 318.384 452.897 321.844 453.657 324.344Z" fill="#282524"/>
<path d="M101.187 445.564C93.4069 444.784 85.4669 444.044 77.5469 443.164C73.8469 442.754 72.1869 440.974 72.5469 436.784C73.3769 427.204 73.3869 417.554 74.2769 407.984C74.7969 402.404 76.3368 396.914 77.4768 391.394C80.5368 376.534 80.9168 361.404 82.0068 346.344C82.1468 344.364 82.3168 342.374 82.5968 340.404C82.9168 338.184 84.4369 337.264 86.5169 337.464C94.2569 338.234 101.997 339.014 109.717 339.974C111.377 340.184 113.797 340.214 113.937 342.604C114.057 344.544 112.057 345.074 110.597 345.844C106.637 347.934 102.747 350.164 98.7368 352.164C96.1968 353.434 95.0768 355.374 94.9968 358.114C94.7768 365.444 93.2269 372.594 91.8169 379.744C91.0869 383.434 91.9068 385.764 95.8268 386.924C100.597 388.334 105.237 390.194 109.947 391.824C111.397 392.324 113.117 392.894 113.137 394.554C113.157 396.444 111.177 396.574 109.777 396.824C107.327 397.244 104.917 397.804 102.497 398.334C91.5168 400.694 90.9169 402.574 88.5669 413.424C85.9569 425.524 89.4268 433.274 100.487 438.114C101.507 438.564 102.277 439.574 103.187 440.294C104.577 441.394 107.017 442.244 106.307 444.264C105.607 446.234 103.087 445.244 101.187 445.564Z" fill="#282524"/>
<path d="M173.547 441.364C173.637 442.714 173.647 444.074 172.327 444.464C171.067 444.834 170.147 443.714 169.447 442.834C164.727 436.864 158.877 431.744 155.637 424.624C154.887 422.974 153.817 421.454 152.817 419.914C150.837 416.864 148.797 416.674 145.937 419.204C140.567 423.964 135.617 429.114 131.177 434.704C129.067 437.354 126.367 439.244 124.017 441.564C123.327 442.254 122.567 443.184 121.477 442.734C119.947 442.104 120.637 440.744 120.837 439.684C122.377 431.814 125.277 424.364 128.567 417.134C132.767 407.894 135.717 398.214 139.127 388.704C143.717 375.904 148.087 363.024 151.667 349.884C152.047 348.494 152.527 346.594 154.397 346.824C156.287 347.054 156.027 349.084 156.307 350.474C159.767 367.244 161.047 384.384 164.797 401.114C167.557 413.424 170.107 425.774 172.767 438.104C173.017 439.254 173.307 440.374 173.547 441.364ZM152.847 397.764C152.127 396.204 153.457 392.324 150.927 392.884C148.217 393.484 148.077 397.654 147.487 400.474C147.137 402.134 148.417 403.404 150.157 403.274C153.707 402.994 152.837 400.234 152.847 397.764Z" fill="#282524"/>
<path d="M299.337 370.774C299.307 354.134 298.977 337.514 296.947 320.964C296.767 319.484 296.667 317.984 296.647 316.484C296.547 309.614 297.387 308.864 304.337 308.734C309.987 308.634 315.637 308.304 321.297 308.134C323.097 308.084 325.427 307.724 326.177 309.684C327.077 312.004 324.647 313.024 323.247 314.334C323.127 314.444 322.977 314.544 322.827 314.604C312.327 319.194 310.837 327.704 311.797 337.994C312.927 350.164 312.517 350.084 324.447 353.234C327.177 353.954 331.807 352.974 332.177 356.344C332.537 359.614 327.617 359.334 325.377 361.144C325.127 361.344 324.807 361.534 324.487 361.594C315.007 363.114 314.597 369.554 314.207 377.614C313.717 387.554 316.757 393.794 326.217 396.814C326.837 397.014 327.507 397.354 327.907 397.834C329.017 399.154 331.717 399.644 331.047 401.814C330.407 403.854 327.987 403.184 326.267 403.594C319.597 405.194 312.717 404.224 306.007 405.484C301.547 406.324 299.347 403.964 299.347 399.214C299.347 389.744 299.347 380.264 299.337 370.774Z" fill="#282524"/>
<path d="M342.037 397.954C343.167 394.634 344.107 390.524 345.907 386.834C350.077 378.284 352.437 369.164 355.187 360.144C357.737 351.764 360.267 343.344 363.457 335.204C365.777 329.274 367.317 323.204 368.867 317.094C369.437 314.854 369.967 311.984 372.827 312.064C375.937 312.144 375.577 315.094 375.977 317.374C378.117 329.604 379.577 341.914 382.467 354.064C385.717 367.744 387.387 381.794 389.687 395.694C389.897 396.954 390.117 398.584 388.697 399.304C386.937 400.204 385.857 398.624 385.047 397.514C383.197 394.974 381.587 392.254 379.917 389.584C378.587 387.474 377.447 385.234 375.967 383.244C370.837 376.334 369.687 376.344 364.277 382.684C359.327 388.484 354.317 394.244 349.297 399.984C347.787 401.704 345.907 402.734 343.557 401.974C341.947 401.454 342.067 399.974 342.037 397.954ZM372.577 356.674C371.717 354.854 373.047 350.484 370.377 350.554C367.567 350.634 367.767 354.994 367.247 357.664C366.837 359.774 367.917 361.354 370.217 361.224C372.747 361.064 372.677 359.014 372.577 356.674Z" fill="#282524"/>
<path d="M32.5368 434.844C31.4268 428.404 33.3568 422.794 34.1568 417.194C35.6768 406.494 35.6368 395.684 37.1868 384.984C38.2868 377.334 34.3567 370.464 31.5967 363.544C28.1567 354.914 24.5767 346.334 21.0867 337.724C20.6067 336.544 19.5268 335.044 20.8668 334.074C22.5068 332.904 23.5867 334.634 24.5767 335.634C31.2567 342.344 37.8368 349.144 44.5368 355.834C48.8068 360.094 49.9267 359.794 53.0767 354.794C56.4367 349.464 60.0468 344.294 63.6068 339.084C64.2368 338.154 65.0167 336.884 66.3367 337.374C67.7567 337.904 67.2668 339.304 67.0568 340.424C63.9868 357.594 62.0068 375.154 54.0168 390.904C47.6368 403.494 40.7868 415.804 36.0468 429.164C35.4168 430.924 35.3368 433.184 32.5368 434.844Z" fill="#282524"/>
<path d="M260.187 392.904C261.467 385.244 261.967 377.454 263.637 369.774C265.677 360.394 264.017 351.404 258.667 343.104C254.257 336.254 250.817 328.854 248.177 321.114C247.777 319.944 246.237 318.734 247.597 317.554C249.087 316.274 250.457 317.784 251.547 318.584C255.567 321.534 259.407 324.714 263.397 327.714C270.407 332.974 272.687 332.444 276.597 324.734C278.547 320.894 280.347 316.974 282.267 313.114C282.977 311.684 283.487 309.544 285.587 310.074C287.607 310.594 287.287 312.534 287.077 314.254C285.777 324.804 284.487 335.354 283.307 345.914C282.817 350.324 280.507 354.044 279.017 358.074C274.947 369.124 270.767 380.144 266.607 391.164C266.197 392.254 265.817 393.394 265.167 394.334C264.297 395.614 263.857 397.894 261.727 397.274C259.677 396.674 260.487 394.494 260.187 392.904Z" fill="#282524"/>
<path d="M410.077 429.924C412.907 436.194 415.587 442.014 418.167 447.874C419.077 449.934 419.927 452.054 422.617 451.834C425.207 451.624 424.767 449.194 425.157 447.564C426.477 442.114 427.167 436.504 430.437 431.264C431.017 436.184 431.517 441.114 432.177 446.024C433.727 457.684 436.117 469.224 437.007 480.974C437.097 482.214 438.037 483.994 436.487 484.584C434.767 485.234 434.717 483.124 433.977 482.154C430.597 477.774 428.427 472.724 426.047 467.794C425.607 466.894 425.167 465.864 424.007 465.884C422.727 465.914 422.677 467.154 422.317 468.044C420.277 473.134 418.267 478.234 416.187 483.304C415.827 484.184 415.467 485.454 414.277 485.324C412.637 485.144 413.087 483.614 412.967 482.544C411.197 466.354 410.827 450.044 408.447 433.904C408.277 432.754 408.267 431.574 410.077 429.924Z" fill="#282524"/>
<path d="M355.177 488.464C349.007 489.084 347.507 488.464 348.937 481.304C351.927 466.334 351.597 451.184 349.817 436.064C349.757 435.564 349.667 435.074 349.627 434.574C348.857 425.804 349.257 425.424 357.947 427.174C360.657 427.724 364.947 426.874 365.697 429.244C366.667 432.314 361.877 432.414 360.107 434.494C358.627 436.234 357.437 437.784 357.567 440.164C357.667 441.994 357.537 443.834 357.607 445.664C357.907 454.634 357.917 454.604 366.587 457.064C368.077 457.484 370.517 457.154 370.527 459.274C370.537 460.984 368.187 460.684 366.897 461.324C364.407 462.564 360.357 462.264 359.537 464.834C358.217 469.014 358.277 473.654 357.967 478.114C357.857 479.634 359.387 480.204 360.547 480.874C362.417 481.944 364.287 483.034 366.127 484.164C366.957 484.674 368.107 485.254 367.717 486.404C367.367 487.454 366.107 487.424 365.127 487.524C361.797 487.854 358.487 488.154 355.177 488.464Z" fill="#282524"/>
<path d="M324.117 486.004C325.157 477.514 325.747 468.934 327.367 460.544C329.077 451.654 325.347 444.344 322.057 436.774C320.567 433.354 317.927 430.424 317.337 426.014C321.937 426.884 324.327 430.104 326.967 432.854C334.557 440.764 334.517 440.804 339.857 431.444C340.967 429.504 341.367 429.074 343.927 427.154C344.457 449.144 336.017 468.064 324.117 486.004Z" fill="#282524"/>
<path d="M375.007 484.364C377.357 476.994 379.617 469.604 381.437 462.084C383.507 453.514 384.927 444.874 386.287 436.194C386.547 434.544 386.087 431.664 388.147 431.484C390.607 431.264 389.607 434.264 390.277 435.754C394.977 446.204 398.347 457.144 401.717 468.074C403.077 472.494 403.867 477.094 404.897 481.614C405.127 482.654 406.177 484.024 404.527 484.584C403.247 485.024 402.467 483.684 401.847 482.774C399.697 479.624 397.877 476.244 395.527 473.254C391.597 468.254 391.177 468.294 386.987 472.994C383.897 476.454 380.987 480.084 377.957 483.604C377.307 484.334 376.547 485.014 375.007 484.364ZM390.547 453.474C388.917 455.584 388.367 457.814 388.037 460.014C387.697 462.334 389.497 462.744 391.267 462.674C393.097 462.604 394.767 461.944 393.997 459.654C393.287 457.594 392.907 455.224 390.547 453.474Z" fill="#282524"/>
<path d="M225.257 467.534C231.277 471.154 237.337 474.694 243.297 478.414C248.617 481.734 248.557 481.814 250.937 476.414C251.267 475.664 251.917 474.974 252.017 474.204C252.657 469.354 254.567 470.154 256.777 473.154C261.177 479.134 265.487 485.194 269.797 491.244C271.107 493.074 272.317 494.964 273.737 497.084C268.687 496.874 266.787 492.494 263.587 490.144C259.107 486.854 258.957 486.724 256.787 491.974C253.887 498.994 253.577 499.134 248.807 493.294C241.437 484.264 233.037 476.264 224.317 468.554C224.627 468.204 224.947 467.874 225.257 467.534Z" fill="#282524"/>
<path d="M256.947 528.124C258.907 526.954 260.847 525.764 262.827 524.634C264.417 523.724 266.297 523.644 264.787 520.544C263.337 517.554 267.357 518.794 268.647 517.674C270.267 516.274 274.117 515.914 274.187 517.034C274.327 519.234 276.447 523.024 271.217 523.954C266.427 524.804 261.917 527.164 257.277 528.854C257.157 528.614 257.057 528.364 256.947 528.124Z" fill="#282524"/>
</svg>
